<svg width="22" height="23" viewBox="0 0 22 23" fill="none" xmlns="http://www.w3.org/2000/svg">
<path d="M21.007 10.3693H8.44792C8.026 8.71152 6.34007 7.70967 4.68226 8.13159C3.58286 8.41141 2.72439 9.26988 2.44457 10.3693H0.778051C0.348338 10.3693 0 10.7176 0 11.1473C0 11.577 0.348338 11.9253 0.778051 11.9253H2.44461C2.86653 13.5831 4.55247 14.5849 6.21028 14.163C7.30968 13.8832 8.16815 13.0247 8.44797 11.9253H21.007C21.4367 11.9253 21.785 11.577 21.785 11.1473C21.785 10.7176 21.4367 10.3693 21.007 10.3693Z" fill="black"/>
<path d="M21.007 2.58901H18.5624C18.1405 0.931243 16.4546 -0.0706006 14.7967 0.351317C13.6973 0.631136 12.8389 1.4896 12.5591 2.58901H0.778051C0.348338 2.58901 0 2.93734 0 3.36706C0 3.79677 0.348338 4.14511 0.778051 4.14511H12.5591C12.981 5.80287 14.6669 6.80472 16.3247 6.3828C17.4241 6.10298 18.2826 5.24451 18.5624 4.14511H21.007C21.4367 4.14511 21.785 3.79677 21.785 3.36706C21.785 2.93734 21.4367 2.58901 21.007 2.58901Z" fill="black"/>
<path d="M21.007 18.1496H17.0063C16.5844 16.4918 14.8984 15.4899 13.2406 15.9119C12.1412 16.1917 11.2828 17.0502 11.0029 18.1496H0.778051C0.348338 18.1496 0 18.4979 0 18.9276C0 19.3572 0.348338 19.7056 0.778051 19.7056H11.003C11.4249 21.3634 13.1109 22.3652 14.7687 21.9433C15.8681 21.6635 16.7265 20.805 17.0063 19.7056H21.007C21.4367 19.7056 21.785 19.3573 21.785 18.9276C21.785 18.4978 21.4367 18.1496 21.007 18.1496Z" fill="black"/>
</svg>
