<svg width="26" height="24" viewBox="0 0 26 24" fill="none" xmlns="http://www.w3.org/2000/svg">
<path d="M8.42138 15.6366H22.1697C22.5102 15.6366 22.8088 15.4114 22.901 15.0845L25.945 4.4307C26.0104 4.20103 25.9657 3.9543 25.8216 3.76347C25.6773 3.57323 25.453 3.46086 25.2136 3.46086H6.66461L6.12064 1.01308C6.04335 0.664505 5.73421 0.416992 5.37751 0.416992H0.760968C0.340454 0.416992 0 0.757446 0 1.17796C0 1.59867 0.340454 1.93893 0.760968 1.93893H4.76675L7.51476 14.3047C6.70623 14.6562 6.13848 15.461 6.13848 16.3975C6.13848 17.6563 7.16261 18.6804 8.42138 18.6804H22.1697C22.5904 18.6804 22.9307 18.3402 22.9307 17.9195C22.9307 17.4989 22.5904 17.1585 22.1697 17.1585H8.42138C8.00225 17.1585 7.66041 16.8174 7.66041 16.3975C7.66041 15.9776 8.00225 15.6366 8.42138 15.6366Z" fill="#0D0D0D"/>
<path d="M7.66016 20.9636C7.66016 22.2225 8.68429 23.2465 9.94326 23.2465C11.202 23.2465 12.2262 22.2225 12.2262 20.9636C12.2262 19.7048 11.202 18.6807 9.94326 18.6807C8.68429 18.6807 7.66016 19.7048 7.66016 20.9636Z" fill="#0D0D0D"/>
<path d="M18.3652 20.9636C18.3652 22.2225 19.3894 23.2465 20.6481 23.2465C21.9071 23.2465 22.931 22.2225 22.931 20.9636C22.931 19.7048 21.9071 18.6807 20.6481 18.6807C19.3894 18.6807 18.3652 19.7048 18.3652 20.9636Z" fill="#0D0D0D"/>
</svg>
