<svg width="38" height="33" viewBox="0 0 38 33" fill="none" xmlns="http://www.w3.org/2000/svg">
<path d="M27.2497 0C23.0733 0 20.5254 1.76706 19 3.6303C17.4746 1.76706 14.9267 0 10.7503 0C4.52111 0 0 4.82074 0 11.4626C0 18.4416 5.83364 22.8572 10.9807 26.7538C13.3924 28.5794 15.6703 30.3038 17.0498 32.05C17.5244 32.6505 18.2417 33 19 33C19.7583 33 20.4761 32.6505 20.9502 32.05C21.8873 30.8636 23.173 29.7748 24.4225 28.7747C25.507 27.9071 25.693 26.3106 24.8385 25.2094C23.984 24.1087 22.4122 23.9193 21.3277 24.7874C20.5528 25.4072 19.7612 26.0626 19.0034 26.7731C17.5161 25.3685 15.7768 24.0517 13.9691 22.6832C9.55981 19.3454 5.00013 15.8936 5.00013 11.4626C5.00013 7.64338 7.31122 5.07707 10.7503 5.07707C12.9769 5.07707 14.5438 5.84062 15.5409 7.41134C16.33 8.65334 16.4941 9.98012 16.5087 10.11C16.5942 11.4442 17.6821 12.4835 19 12.4835C20.3184 12.4835 21.4063 11.4442 21.4918 10.11C21.5064 9.98012 21.6705 8.65334 22.4591 7.41134C23.4562 5.84062 25.0236 5.07707 27.2502 5.07707C30.6893 5.07707 32.9999 7.64338 32.9999 11.4626C32.9999 13.5891 31.9227 15.6705 29.6096 18.0127C28.6321 19.0028 28.6301 20.6098 29.6048 21.6024C30.5799 22.595 32.1629 22.5974 33.1405 21.6073C35.2265 19.4947 38 16.145 38 11.4626C38 4.82074 33.4789 0 27.2497 0Z" fill="#A8A8A8"/>
</svg>
